<?xml version="1.0" encoding="utf-8"?>
<!-- Generator: Adobe Illustrator 18.1.1, SVG Export Plug-In . SVG Version: 6.00 Build 0)  -->
<svg version="1.1" id="Layer_1" xmlns:x="&ns_extend;" xmlns:i="&ns_ai;" xmlns:graph="&ns_graphs;"
	 xmlns="http://www.w3.org/2000/svg" xmlns:xlink="http://www.w3.org/1999/xlink" x="0px" y="0px" viewBox="0 0 989.4 619.7"
	 enable-background="new 0 0 989.4 619.7" xml:space="preserve">
<metadata>
	<sfw  xmlns="&ns_sfw;">
		<slices></slices>
		<sliceSourceBounds  width="960" height="605.5" y="-751.3" x="91" bottomLeftOrigin="true"></sliceSourceBounds>
		<optimizationSettings>
			<targetSettings  fileFormat="PNG24Format" targetSettingsID="0">
				<PNG24Format  transparency="true" interlaced="false" matteColor="#FFFFFF" filtered="false" noMatteColor="false">
					</PNG24Format>
			</targetSettings>
		</optimizationSettings>
	</sfw>
</metadata>
<linearGradient id="SVGID_1_" gradientUnits="userSpaceOnUse" x1="492.0606" y1="604.0303" x2="492.0606" y2="233.0303">
	<stop  offset="0" style="stop-color:#999999"/>
	<stop  offset="1" style="stop-color:#004D77"/>
</linearGradient>
<rect x="12.1" y="233" opacity="0.4" fill="url(#SVGID_1_)" width="960" height="371"/>
<rect x="132" y="429.6" fill="none" width="722.1" height="201.8"/>
<text transform="matrix(1 0 0 1 132.0172 444.6202)"><tspan x="0" y="0" fill="#A4D9F5" font-family="'BookmanOldStyle-Bold'" font-size="21">Why partner with us?</tspan><tspan x="0" y="31.2" fill="#FFFFFF" font-family="'Calibri'" font-size="13">We</tspan><tspan x="18" y="31.2" fill="#FFFFFF" font-family="'Calibri'" font-size="13" letter-spacing="1"> </tspan><tspan x="22.1" y="31.2" fill="#FFFFFF" font-family="'Calibri'" font-size="13">have</tspan><tspan x="47.5" y="31.2" fill="#FFFFFF" font-family="'Calibri'" font-size="13" letter-spacing="1"> </tspan><tspan x="51.7" y="31.2" fill="#FFFFFF" font-family="'Calibri'" font-size="13">a</tspan><tspan x="57.9" y="31.2" fill="#FFFFFF" font-family="'Calibri'" font-size="13" letter-spacing="1"> </tspan><tspan x="62" y="31.2" fill="#FFFFFF" font-family="'Calibri'" font-size="13">proven</tspan><tspan x="99.4" y="31.2" fill="#FFFFFF" font-family="'Calibri'" font-size="13" letter-spacing="1"> </tspan><tspan x="103.5" y="31.2" fill="#FFFFFF" font-family="'Calibri'" font-size="13">track</tspan><tspan x="130" y="31.2" fill="#FFFFFF" font-family="'Calibri'" font-size="13" letter-spacing="1"> </tspan><tspan x="134.1" y="31.2" fill="#FFFFFF" font-family="'Calibri'" font-size="13">record</tspan><tspan x="168.9" y="31.2" fill="#FFFFFF" font-family="'Calibri'" font-size="13" letter-spacing="1"> </tspan><tspan x="173" y="31.2" fill="#FFFFFF" font-family="'Calibri'" font-size="13">for</tspan><tspan x="188.3" y="31.2" fill="#FFFFFF" font-family="'Calibri'" font-size="13" letter-spacing="1"> </tspan><tspan x="192.4" y="31.2" fill="#FFFFFF" font-family="'Calibri'" font-size="13">growing</tspan><tspan x="235.2" y="31.2" fill="#FFFFFF" font-family="'Calibri'" font-size="13" letter-spacing="1"> </tspan><tspan x="239.3" y="31.2" fill="#FFFFFF" font-family="'Calibri'" font-size="13">entrepreneurially-minded</tspan><tspan x="375.8" y="31.2" fill="#FFFFFF" font-family="'Calibri'" font-size="13" letter-spacing="1"> </tspan><tspan x="379.9" y="31.2" fill="#FFFFFF" font-family="'Calibri'" font-size="13">Forex</tspan><tspan x="409.4" y="31.2" fill="#FFFFFF" font-family="'Calibri'" font-size="13" letter-spacing="1"> </tspan><tspan x="413.5" y="31.2" fill="#FFFFFF" font-family="'Calibri'" font-size="13">traders.</tspan><tspan x="454.8" y="31.2" fill="#FFFFFF" font-family="'Calibri'" font-size="13" letter-spacing="1"> </tspan><tspan x="458.9" y="31.2" fill="#FFFFFF" font-family="'Calibri'" font-size="13">We</tspan><tspan x="476.9" y="31.2" fill="#FFFFFF" font-family="'Calibri'" font-size="13" letter-spacing="1"> </tspan><tspan x="481" y="31.2" fill="#FFFFFF" font-family="'Calibri'" font-size="13">look</tspan><tspan x="503.7" y="31.2" fill="#FFFFFF" font-family="'Calibri'" font-size="13" letter-spacing="1"> </tspan><tspan x="507.8" y="31.2" fill="#FFFFFF" font-family="'Calibri'" font-size="13">forward</tspan><tspan x="550" y="31.2" fill="#FFFFFF" font-family="'Calibri'" font-size="13" letter-spacing="1"> </tspan><tspan x="554.1" y="31.2" fill="#FFFFFF" font-family="'Calibri'" font-size="13">to</tspan><tspan x="565.3" y="31.2" fill="#FFFFFF" font-family="'Calibri'" font-size="13" letter-spacing="1"> </tspan><tspan x="569.4" y="31.2" fill="#FFFFFF" font-family="'Calibri'" font-size="13">welcoming</tspan><tspan x="626.9" y="31.2" fill="#FFFFFF" font-family="'Calibri'" font-size="13" letter-spacing="1"> </tspan><tspan x="631" y="31.2" fill="#FFFFFF" font-family="'Calibri'" font-size="13">you</tspan><tspan x="650.5" y="31.2" fill="#FFFFFF" font-family="'Calibri'" font-size="13" letter-spacing="1"> </tspan><tspan x="654.7" y="31.2" fill="#FFFFFF" font-family="'Calibri'" font-size="13">to</tspan><tspan x="665.9" y="31.2" fill="#FFFFFF" font-family="'Calibri'" font-size="13" letter-spacing="1"> </tspan><tspan x="670" y="31.2" fill="#FFFFFF" font-family="'Calibri'" font-size="13">the</tspan><tspan x="687.6" y="31.2" fill="#FFFFFF" font-family="'Calibri'" font-size="13" letter-spacing="1"> </tspan><tspan x="691.7" y="31.2" fill="#FFFFFF" font-family="'Calibri'" font-size="13">list</tspan><tspan x="707.2" y="31.2" fill="#FFFFFF" font-family="'Calibri'" font-size="13" letter-spacing="1"> </tspan><tspan x="711.3" y="31.2" fill="#FFFFFF" font-family="'Calibri'" font-size="13">of </tspan><tspan x="0" y="46.8" fill="#FFFFFF" font-family="'Calibri'" font-size="13">established</tspan><tspan x="60.1" y="46.8" fill="#FFFFFF" font-family="'Calibri'" font-size="13" letter-spacing="1"> </tspan><tspan x="64.2" y="46.8" fill="#FFFFFF" font-family="'Calibri'" font-size="13">traders</tspan><tspan x="102.2" y="46.8" fill="#FFFFFF" font-family="'Calibri'" font-size="13" letter-spacing="1"> </tspan><tspan x="106.3" y="46.8" fill="#FFFFFF" font-family="'Calibri'" font-size="13">who</tspan><tspan x="129.3" y="46.8" fill="#FFFFFF" font-family="'Calibri'" font-size="13" letter-spacing="1"> </tspan><tspan x="133.4" y="46.8" fill="#FFFFFF" font-family="'Calibri'" font-size="13">are</tspan><tspan x="150.6" y="46.8" fill="#FFFFFF" font-family="'Calibri'" font-size="13" letter-spacing="1"> </tspan><tspan x="154.7" y="46.8" fill="#FFFFFF" font-family="'Calibri'" font-size="13">happy</tspan><tspan x="187.3" y="46.8" fill="#FFFFFF" font-family="'Calibri'" font-size="13" letter-spacing="1"> </tspan><tspan x="191.3" y="46.8" fill="#FFFFFF" font-family="'Calibri'" font-size="13">to</tspan><tspan x="202.5" y="46.8" fill="#FFFFFF" font-family="'Calibri'" font-size="13" letter-spacing="1"> </tspan><tspan x="206.6" y="46.8" fill="#FFFFFF" font-family="'Calibri'" font-size="13">endorse</tspan><tspan x="249.7" y="46.8" fill="#FFFFFF" font-family="'Calibri'" font-size="13" letter-spacing="1"> </tspan><tspan x="253.8" y="46.8" fill="#FFFFFF" font-family="'Calibri'" font-size="13">International</tspan><tspan x="322.4" y="46.8" fill="#FFFFFF" font-family="'Calibri'" font-size="13" letter-spacing="1"> </tspan><tspan x="326.5" y="46.8" fill="#FFFFFF" font-family="'Calibri'" font-size="13">FX</tspan><tspan x="339.2" y="46.8" fill="#FFFFFF" font-family="'Calibri'" font-size="13" letter-spacing="1"> </tspan><tspan x="343.3" y="46.8" fill="#FFFFFF" font-family="'Calibri'" font-size="13">Trading</tspan><tspan x="383.1" y="46.8" fill="#FFFFFF" font-family="'Calibri'" font-size="13" letter-spacing="1"> </tspan><tspan x="387.2" y="46.8" fill="#FFFFFF" font-family="'Calibri'" font-size="13">for</tspan><tspan x="402.6" y="46.8" fill="#FFFFFF" font-family="'Calibri'" font-size="13" letter-spacing="1"> </tspan><tspan x="406.6" y="46.8" fill="#FFFFFF" font-family="'Calibri'" font-size="13">taking</tspan><tspan x="439.1" y="46.8" fill="#FFFFFF" font-family="'Calibri'" font-size="13" letter-spacing="1"> </tspan><tspan x="443.1" y="46.8" fill="#FFFFFF" font-family="'Calibri'" font-size="13">them</tspan><tspan x="471.2" y="46.8" fill="#FFFFFF" font-family="'Calibri'" font-size="13" letter-spacing="1"> </tspan><tspan x="475.2" y="46.8" fill="#FFFFFF" font-family="'Calibri'" font-size="13">to</tspan><tspan x="486.4" y="46.8" fill="#FFFFFF" font-family="'Calibri'" font-size="13" letter-spacing="1"> </tspan><tspan x="490.5" y="46.8" fill="#FFFFFF" font-family="'Calibri'" font-size="13">where</tspan><tspan x="524.1" y="46.8" fill="#FFFFFF" font-family="'Calibri'" font-size="13" letter-spacing="1"> </tspan><tspan x="528.2" y="46.8" fill="#FFFFFF" font-family="'Calibri'" font-size="13">they</tspan><tspan x="551.7" y="46.8" fill="#FFFFFF" font-family="'Calibri'" font-size="13" letter-spacing="1"> </tspan><tspan x="555.8" y="46.8" fill="#FFFFFF" font-family="'Calibri'" font-size="13">are</tspan><tspan x="573" y="46.8" fill="#FFFFFF" font-family="'Calibri'" font-size="13" letter-spacing="1"> </tspan><tspan x="577.1" y="46.8" fill="#FFFFFF" font-family="'Calibri'" font-size="13">today.</tspan><tspan x="610.5" y="46.8" fill="#FFFFFF" font-family="'Calibri'" font-size="13" letter-spacing="1"> </tspan><tspan x="614.6" y="46.8" fill="#FFFFFF" font-family="'Calibri'" font-size="13">We’ve</tspan><tspan x="648.2" y="46.8" fill="#FFFFFF" font-family="'Calibri'" font-size="13" letter-spacing="1"> </tspan><tspan x="652.3" y="46.8" fill="#FFFFFF" font-family="'Calibri'" font-size="13">helped</tspan><tspan x="688.7" y="46.8" fill="#FFFFFF" font-family="'Calibri'" font-size="13" letter-spacing="1"> </tspan><tspan x="692.8" y="46.8" fill="#FFFFFF" font-family="'Calibri'" font-size="13">many </tspan><tspan x="0" y="62.4" fill="#FFFFFF" font-family="'Calibri'" font-size="13">individuals</tspan><tspan x="56.4" y="62.4" fill="#FFFFFF" font-family="'Calibri'" font-size="13"> </tspan><tspan x="60.1" y="62.4" fill="#FFFFFF" font-family="'Calibri'" font-size="13">just</tspan><tspan x="79.4" y="62.4" fill="#FFFFFF" font-family="'Calibri'" font-size="13"> </tspan><tspan x="83.1" y="62.4" fill="#FFFFFF" font-family="'Calibri'" font-size="13">like</tspan><tspan x="101.4" y="62.4" fill="#FFFFFF" font-family="'Calibri'" font-size="13"> </tspan><tspan x="105" y="62.4" fill="#FFFFFF" font-family="'Calibri'" font-size="13">you</tspan><tspan x="124.6" y="62.4" fill="#FFFFFF" font-family="'Calibri'" font-size="13"> </tspan><tspan x="128.2" y="62.4" fill="#FFFFFF" font-family="'Calibri'" font-size="13">to</tspan><tspan x="139.4" y="62.4" fill="#FFFFFF" font-family="'Calibri'" font-size="13"> </tspan><tspan x="143.1" y="62.4" fill="#FFFFFF" font-family="'Calibri'" font-size="13">succeed.</tspan><tspan x="189" y="62.4" fill="#FFFFFF" font-family="'Calibri'" font-size="13"> </tspan><tspan x="192.6" y="62.4" fill="#FFFFFF" font-family="'Calibri'" font-size="13">Forex</tspan><tspan x="222.1" y="62.4" fill="#FFFFFF" font-family="'Calibri'" font-size="13"> </tspan><tspan x="225.7" y="62.4" fill="#FFFFFF" font-family="'Calibri'" font-size="13">trading</tspan><tspan x="263.6" y="62.4" fill="#FFFFFF" font-family="'Calibri'" font-size="13"> </tspan><tspan x="267.2" y="62.4" fill="#FFFFFF" font-family="'Calibri'" font-size="13">can</tspan><tspan x="285.8" y="62.4" fill="#FFFFFF" font-family="'Calibri'" font-size="13"> </tspan><tspan x="289.4" y="62.4" fill="#FFFFFF" font-family="'Calibri'" font-size="13">be</tspan><tspan x="302.7" y="62.4" fill="#FFFFFF" font-family="'Calibri'" font-size="13"> </tspan><tspan x="306.3" y="62.4" fill="#FFFFFF" font-family="'Calibri'" font-size="13">extremely</tspan><tspan x="359.5" y="62.4" fill="#FFFFFF" font-family="'Calibri'" font-size="13"> </tspan><tspan x="363.1" y="62.4" fill="#FFFFFF" font-family="'Calibri'" font-size="13">lucrative</tspan><tspan x="408.8" y="62.4" fill="#FFFFFF" font-family="'Calibri'" font-size="13"> </tspan><tspan x="412.4" y="62.4" fill="#FFFFFF" font-family="'Calibri'" font-size="13">–</tspan><tspan x="418.9" y="62.4" fill="#FFFFFF" font-family="'Calibri'" font-size="13"> </tspan><tspan x="422.5" y="62.4" fill="#FFFFFF" font-family="'Calibri'" font-size="13">and</tspan><tspan x="442.4" y="62.4" fill="#FFFFFF" font-family="'Calibri'" font-size="13"> </tspan><tspan x="446" y="62.4" fill="#FFFFFF" font-family="'Calibri'" font-size="13">extremely</tspan><tspan x="499.2" y="62.4" fill="#FFFFFF" font-family="'Calibri'" font-size="13"> </tspan><tspan x="502.8" y="62.4" fill="#FFFFFF" font-family="'Calibri'" font-size="13">risky.</tspan><tspan x="530.5" y="62.4" fill="#FFFFFF" font-family="'Calibri'" font-size="13"> </tspan><tspan x="534.1" y="62.4" fill="#FFFFFF" font-family="'Calibri'" font-size="13">We</tspan><tspan x="552.1" y="62.4" fill="#FFFFFF" font-family="'Calibri'" font-size="13"> </tspan><tspan x="555.7" y="62.4" fill="#FFFFFF" font-family="'Calibri'" font-size="13">show</tspan><tspan x="583.8" y="62.4" fill="#FFFFFF" font-family="'Calibri'" font-size="13"> </tspan><tspan x="587.4" y="62.4" fill="#FFFFFF" font-family="'Calibri'" font-size="13">you</tspan><tspan x="607" y="62.4" fill="#FFFFFF" font-family="'Calibri'" font-size="13"> </tspan><tspan x="610.6" y="62.4" fill="#FFFFFF" font-family="'Calibri'" font-size="13">how</tspan><tspan x="633.6" y="62.4" fill="#FFFFFF" font-family="'Calibri'" font-size="13"> </tspan><tspan x="637.2" y="62.4" fill="#FFFFFF" font-family="'Calibri'" font-size="13">to</tspan><tspan x="648.4" y="62.4" fill="#FFFFFF" font-family="'Calibri'" font-size="13"> </tspan><tspan x="652.1" y="62.4" fill="#FFFFFF" font-family="'Calibri'" font-size="13">develop</tspan><tspan x="694.4" y="62.4" fill="#FFFFFF" font-family="'Calibri'" font-size="13"> </tspan><tspan x="698" y="62.4" fill="#FFFFFF" font-family="'Calibri'" font-size="13">your </tspan><tspan x="0" y="78" fill="#FFFFFF" font-family="'Calibri'" font-size="13">mental</tspan><tspan x="37.2" y="78" fill="#FFFFFF" font-family="'Calibri'" font-size="13" letter-spacing="2"> </tspan><tspan x="42.7" y="78" fill="#FFFFFF" font-family="'Calibri'" font-size="13">edge,</tspan><tspan x="71.9" y="78" fill="#FFFFFF" font-family="'Calibri'" font-size="13" letter-spacing="2"> </tspan><tspan x="77.3" y="78" fill="#FFFFFF" font-family="'Calibri'" font-size="13">eliminating</tspan><tspan x="136.4" y="78" fill="#FFFFFF" font-family="'Calibri'" font-size="13" letter-spacing="2"> </tspan><tspan x="141.9" y="78" fill="#FFFFFF" font-family="'Calibri'" font-size="13">uncertainty</tspan><tspan x="202.7" y="78" fill="#FFFFFF" font-family="'Calibri'" font-size="13" letter-spacing="2"> </tspan><tspan x="208.1" y="78" fill="#FFFFFF" font-family="'Calibri'" font-size="13">to</tspan><tspan x="219.3" y="78" fill="#FFFFFF" font-family="'Calibri'" font-size="13" letter-spacing="2"> </tspan><tspan x="224.8" y="78" fill="#FFFFFF" font-family="'Calibri'" font-size="13">enhance</tspan><tspan x="270" y="78" fill="#FFFFFF" font-family="'Calibri'" font-size="13" letter-spacing="2"> </tspan><tspan x="275.4" y="78" fill="#FFFFFF" font-family="'Calibri'" font-size="13">your</tspan><tspan x="299.5" y="78" fill="#FFFFFF" font-family="'Calibri'" font-size="13" letter-spacing="2"> </tspan><tspan x="305" y="78" fill="#FFFFFF" font-family="'Calibri'" font-size="13">trading</tspan><tspan x="342.9" y="78" fill="#FFFFFF" font-family="'Calibri'" font-size="13" letter-spacing="2"> </tspan><tspan x="348.4" y="78" fill="#FFFFFF" font-family="'Calibri'" font-size="13">performance</tspan><tspan x="417" y="78" fill="#FFFFFF" font-family="'Calibri'" font-size="13" letter-spacing="2"> </tspan><tspan x="422.4" y="78" fill="#FFFFFF" font-family="'Calibri'" font-size="13">in</tspan><tspan x="432.3" y="78" fill="#FFFFFF" font-family="'Calibri'" font-size="13" letter-spacing="2"> </tspan><tspan x="437.7" y="78" fill="#FFFFFF" font-family="'Calibri'" font-size="13">the</tspan><tspan x="455.4" y="78" fill="#FFFFFF" font-family="'Calibri'" font-size="13" letter-spacing="2"> </tspan><tspan x="460.9" y="78" fill="#FFFFFF" font-family="'Calibri'" font-size="13">exciting</tspan><tspan x="501.6" y="78" fill="#FFFFFF" font-family="'Calibri'" font-size="13" letter-spacing="2"> </tspan><tspan x="507.1" y="78" fill="#FFFFFF" font-family="'Calibri'" font-size="13">and</tspan><tspan x="527" y="78" fill="#FFFFFF" font-family="'Calibri'" font-size="13" letter-spacing="2"> </tspan><tspan x="532.5" y="78" fill="#FFFFFF" font-family="'Calibri'" font-size="13">dangerous</tspan><tspan x="588.2" y="78" fill="#FFFFFF" font-family="'Calibri'" font-size="13" letter-spacing="2"> </tspan><tspan x="593.7" y="78" fill="#FFFFFF" font-family="'Calibri'" font-size="13">world</tspan><tspan x="624.2" y="78" fill="#FFFFFF" font-family="'Calibri'" font-size="13" letter-spacing="2"> </tspan><tspan x="629.7" y="78" fill="#FFFFFF" font-family="'Calibri'" font-size="13">of</tspan><tspan x="640.5" y="78" fill="#FFFFFF" font-family="'Calibri'" font-size="13" letter-spacing="2"> </tspan><tspan x="646" y="78" fill="#FFFFFF" font-family="'Calibri'" font-size="13">Forex</tspan><tspan x="675.5" y="78" fill="#FFFFFF" font-family="'Calibri'" font-size="13" letter-spacing="2"> </tspan><tspan x="680.9" y="78" fill="#FFFFFF" font-family="'Calibri'" font-size="13">trading. </tspan><tspan x="0" y="93.6" fill="#FFFFFF" font-family="'Calibri'" font-size="13">Thousands</tspan><tspan x="56.9" y="93.6" fill="#FFFFFF" font-family="'Calibri'" font-size="13"> </tspan><tspan x="59.9" y="93.6" fill="#FFFFFF" font-family="'Calibri'" font-size="13">of</tspan><tspan x="70.7" y="93.6" fill="#FFFFFF" font-family="'Calibri'" font-size="13"> </tspan><tspan x="73.7" y="93.6" fill="#FFFFFF" font-family="'Calibri'" font-size="13">successful</tspan><tspan x="127" y="93.6" fill="#FFFFFF" font-family="'Calibri'" font-size="13"> </tspan><tspan x="130" y="93.6" fill="#FFFFFF" font-family="'Calibri'" font-size="13">traders</tspan><tspan x="168" y="93.6" fill="#FFFFFF" font-family="'Calibri'" font-size="13"> </tspan><tspan x="171" y="93.6" fill="#FFFFFF" font-family="'Calibri'" font-size="13">have</tspan><tspan x="196.4" y="93.6" fill="#FFFFFF" font-family="'Calibri'" font-size="13"> </tspan><tspan x="199.3" y="93.6" fill="#FFFFFF" font-family="'Calibri'" font-size="13">not</tspan><tspan x="217.4" y="93.6" fill="#FFFFFF" font-family="'Calibri'" font-size="13"> </tspan><tspan x="220.3" y="93.6" fill="#FFFFFF" font-family="'Calibri'" font-size="13">only</tspan><tspan x="242.9" y="93.6" fill="#FFFFFF" font-family="'Calibri'" font-size="13"> </tspan><tspan x="245.8" y="93.6" fill="#FFFFFF" font-family="'Calibri'" font-size="13">benefitted</tspan><tspan x="300.9" y="93.6" fill="#FFFFFF" font-family="'Calibri'" font-size="13"> </tspan><tspan x="303.8" y="93.6" fill="#FFFFFF" font-family="'Calibri'" font-size="13">from</tspan><tspan x="329.6" y="93.6" fill="#FFFFFF" font-family="'Calibri'" font-size="13"> </tspan><tspan x="332.5" y="93.6" fill="#FFFFFF" font-family="'Calibri'" font-size="13">our</tspan><tspan x="350.8" y="93.6" fill="#FFFFFF" font-family="'Calibri'" font-size="13"> </tspan><tspan x="353.7" y="93.6" fill="#FFFFFF" font-family="'Calibri'" font-size="13">training</tspan><tspan x="394.6" y="93.6" fill="#FFFFFF" font-family="'Calibri'" font-size="13"> </tspan><tspan x="397.6" y="93.6" fill="#FFFFFF" font-family="'Calibri'" font-size="13">programs</tspan><tspan x="448.1" y="93.6" fill="#FFFFFF" font-family="'Calibri'" font-size="13"> </tspan><tspan x="451.1" y="93.6" fill="#FFFFFF" font-family="'Calibri'" font-size="13">but</tspan><tspan x="469.1" y="93.6" fill="#FFFFFF" font-family="'Calibri'" font-size="13"> </tspan><tspan x="472.1" y="93.6" fill="#FFFFFF" font-family="'Calibri'" font-size="13">continue</tspan><tspan x="518.6" y="93.6" fill="#FFFFFF" font-family="'Calibri'" font-size="13"> </tspan><tspan x="521.6" y="93.6" fill="#FFFFFF" font-family="'Calibri'" font-size="13">to</tspan><tspan x="532.8" y="93.6" fill="#FFFFFF" font-family="'Calibri'" font-size="13"> </tspan><tspan x="535.8" y="93.6" fill="#FFFFFF" font-family="'Calibri'" font-size="13">do</tspan><tspan x="549.5" y="93.6" fill="#FFFFFF" font-family="'Calibri'" font-size="13"> </tspan><tspan x="552.4" y="93.6" fill="#FFFFFF" font-family="'Calibri'" font-size="13">so</tspan><tspan x="564.4" y="93.6" fill="#FFFFFF" font-family="'Calibri'" font-size="13"> </tspan><tspan x="567.3" y="93.6" fill="#FFFFFF" font-family="'Calibri'" font-size="13">through</tspan><tspan x="609.7" y="93.6" fill="#FFFFFF" font-family="'Calibri'" font-size="13"> </tspan><tspan x="612.7" y="93.6" fill="#FFFFFF" font-family="'Calibri'" font-size="13">our</tspan><tspan x="630.9" y="93.6" fill="#FFFFFF" font-family="'Calibri'" font-size="13"> </tspan><tspan x="633.8" y="93.6" fill="#FFFFFF" font-family="'Calibri'" font-size="13">customised</tspan><tspan x="694.2" y="93.6" fill="#FFFFFF" font-family="'Calibri'" font-size="13"> </tspan><tspan x="697.2" y="93.6" fill="#FFFFFF" font-family="'Calibri'" font-size="13">daily </tspan><tspan x="0" y="109.2" fill="#FFFFFF" font-family="'Calibri'" font-size="13">Signals</tspan><tspan x="36.2" y="109.2" fill="#FFFFFF" font-family="'Calibri'" font-size="13" letter-spacing="2"> </tspan><tspan x="41.2" y="109.2" fill="#FFFFFF" font-family="'Calibri'" font-size="13">Mobile</tspan><tspan x="78.5" y="109.2" fill="#FFFFFF" font-family="'Calibri'" font-size="13" letter-spacing="2"> </tspan><tspan x="83.5" y="109.2" fill="#FFFFFF" font-family="'Calibri'" font-size="13">App.</tspan><tspan x="108" y="109.2" fill="#FFFFFF" font-family="'Calibri'" font-size="13" letter-spacing="2"> </tspan><tspan x="113" y="109.2" fill="#FFFFFF" font-family="'Calibri'" font-size="13">The</tspan><tspan x="132.7" y="109.2" fill="#FFFFFF" font-family="'Calibri'" font-size="13" letter-spacing="2"> </tspan><tspan x="137.7" y="109.2" fill="#FFFFFF" font-family="'Calibri'" font-size="13">markets</tspan><tspan x="180.7" y="109.2" fill="#FFFFFF" font-family="'Calibri'" font-size="13" letter-spacing="2"> </tspan><tspan x="185.7" y="109.2" fill="#FFFFFF" font-family="'Calibri'" font-size="13">offer</tspan><tspan x="211.1" y="109.2" fill="#FFFFFF" font-family="'Calibri'" font-size="13" letter-spacing="2"> </tspan><tspan x="216.2" y="109.2" fill="#FFFFFF" font-family="'Calibri'" font-size="13">enormous</tspan><tspan x="270" y="109.2" fill="#FFFFFF" font-family="'Calibri'" font-size="13" letter-spacing="2"> </tspan><tspan x="275.1" y="109.2" fill="#FFFFFF" font-family="'Calibri'" font-size="13">opportunities</tspan><tspan x="346.8" y="109.2" fill="#FFFFFF" font-family="'Calibri'" font-size="13" letter-spacing="2"> </tspan><tspan x="351.8" y="109.2" fill="#FFFFFF" font-family="'Calibri'" font-size="13">to</tspan><tspan x="363" y="109.2" fill="#FFFFFF" font-family="'Calibri'" font-size="13" letter-spacing="2"> </tspan><tspan x="368" y="109.2" fill="#FFFFFF" font-family="'Calibri'" font-size="13">generate</tspan><tspan x="415.5" y="109.2" fill="#FFFFFF" font-family="'Calibri'" font-size="13" letter-spacing="2"> </tspan><tspan x="420.6" y="109.2" fill="#FFFFFF" font-family="'Calibri'" font-size="13">wealth.</tspan><tspan x="460" y="109.2" fill="#FFFFFF" font-family="'Calibri'" font-size="13" letter-spacing="2"> </tspan><tspan x="465" y="109.2" fill="#FFFFFF" font-family="'Calibri'" font-size="13">With</tspan><tspan x="490.8" y="109.2" fill="#FFFFFF" font-family="'Calibri'" font-size="13" letter-spacing="2"> </tspan><tspan x="495.8" y="109.2" fill="#FFFFFF" font-family="'Calibri'" font-size="13">our</tspan><tspan x="514" y="109.2" fill="#FFFFFF" font-family="'Calibri'" font-size="13" letter-spacing="2"> </tspan><tspan x="519.1" y="109.2" fill="#FFFFFF" font-family="'Calibri'" font-size="13">training</tspan><tspan x="559.9" y="109.2" fill="#FFFFFF" font-family="'Calibri'" font-size="13" letter-spacing="2"> </tspan><tspan x="565" y="109.2" fill="#FFFFFF" font-family="'Calibri'" font-size="13">accompanied</tspan><tspan x="635.6" y="109.2" fill="#FFFFFF" font-family="'Calibri'" font-size="13" letter-spacing="2"> </tspan><tspan x="640.6" y="109.2" fill="#FFFFFF" font-family="'Calibri'" font-size="13">by</tspan><tspan x="653.3" y="109.2" fill="#FFFFFF" font-family="'Calibri'" font-size="13" letter-spacing="2"> </tspan><tspan x="658.4" y="109.2" fill="#FFFFFF" font-family="'Calibri'" font-size="13">an</tspan><tspan x="671.4" y="109.2" fill="#FFFFFF" font-family="'Calibri'" font-size="13" letter-spacing="2"> e</tspan><tspan x="676.5" y="109.2" fill="#FFFFFF" font-family="'Calibri'" font-size="13">ffective </tspan><tspan x="0" y="124.8" fill="#FFFFFF" font-family="'Calibri'" font-size="13">business structure, you can - and will - achieve financial freedom. </tspan></text>
<g>
	<linearGradient id="SVGID_2_" gradientUnits="userSpaceOnUse" x1="730.9818" y1="139.5802" x2="881.9931" y2="290.5915">
		<stop  offset="0" style="stop-color:#FFFFFF"/>
		<stop  offset="1" style="stop-color:#7F7F7F"/>
	</linearGradient>
	<path fill="url(#SVGID_2_)" d="M895,153.3l-79.3-45.8c-5.1-2.9-13.4-2.9-18.5,0L718,153.3c-5.1,2.9-9.3,10.2-9.3,16v57.3l29.7,17.1
		c1,0.6,2,1.4,3,2.3l4.4-2.6l5.7,9.9l-22.8,13.2l-5.7-9.9l-13.8,8c0.9,3.6,3.1,7.3,5.8,9.9c0.9,0.9,1.9,1.7,3,2.3l29.7,17.1
		l49.6,28.6c5.1,2.9,13.4,2.9,18.5,0l79.3-45.8c5.1-2.9,9.3-10.2,9.3-16v-91.5C904.3,163.4,900.1,156.2,895,153.3z"/>
	<defs>
		<filter id="Adobe_OpacityMaskFilter" filterUnits="userSpaceOnUse" x="709.2" y="256.7" width="19.5" height="17.9">
			<feFlood  style="flood-color:white;flood-opacity:1" result="back"/>
			<feBlend  in="SourceGraphic" in2="back" mode="normal"/>
		</filter>
	</defs>
	<mask maskUnits="userSpaceOnUse" x="709.2" y="256.7" width="19.5" height="17.9" id="SVGID_3_">
		<g filter="url(#Adobe_OpacityMaskFilter)">
			<defs>
				<filter id="Adobe_OpacityMaskFilter_1_" filterUnits="userSpaceOnUse" x="709.2" y="256.7" width="19.5" height="17.9">
					<feFlood  style="flood-color:white;flood-opacity:1" result="back"/>
					<feBlend  in="SourceGraphic" in2="back" mode="normal"/>
				</filter>
			</defs>
			<mask maskUnits="userSpaceOnUse" x="709.2" y="256.7" width="19.5" height="17.9" id="SVGID_3_">
			</mask>
			<linearGradient id="SVGID_4_" gradientUnits="userSpaceOnUse" x1="715.7859" y1="260.973" x2="721.9938" y2="271.1123">
				<stop  offset="0" style="stop-color:#FFFFFF"/>
				<stop  offset="1" style="stop-color:#000000"/>
			</linearGradient>
			<path mask="url(#SVGID_3_)" fill="url(#SVGID_4_)" d="M728.8,266.6l-5.7-9.9l-13.8,8c0.9,3.6,3.1,7.3,5.8,9.9L728.8,266.6z"/>
		</g>
	</mask>
	<linearGradient id="SVGID_5_" gradientUnits="userSpaceOnUse" x1="715.7859" y1="260.973" x2="721.9938" y2="271.1123">
		<stop  offset="0" style="stop-color:#B4B4B4"/>
		<stop  offset="1" style="stop-color:#B4B4B4"/>
	</linearGradient>
	<path fill="url(#SVGID_5_)" d="M728.8,266.6l-5.7-9.9l-13.8,8c0.9,3.6,3.1,7.3,5.8,9.9L728.8,266.6z"/>
	<linearGradient id="SVGID_6_" gradientUnits="userSpaceOnUse" x1="574.3751" y1="230.0518" x2="725.381" y2="381.0577">
		<stop  offset="0" style="stop-color:#6A604B"/>
		<stop  offset="1.966804e-002" style="stop-color:#6D624D"/>
		<stop  offset="0.2181" style="stop-color:#807358"/>
		<stop  offset="0.4332" style="stop-color:#8F8060"/>
		<stop  offset="0.6751" style="stop-color:#998865"/>
		<stop  offset="1" style="stop-color:#9B8B66"/>
	</linearGradient>
	<path fill="url(#SVGID_6_)" d="M718,276.9c-1-0.6-2-1.4-3-2.3l-4.4,2.6l-5.7-9.9l22.8-13.2l5.7,9.9l13.8-8
		c-0.9-3.6-3.1-7.3-5.8-9.9c-0.9-0.9-1.9-1.7-3-2.3l-29.7-17.1L659.1,198c-5.1-2.9-13.4-2.9-18.5,0l-49.8,28.7v34
		c0,1.2-0.2,2.5-0.5,3.8l4.6,2.7l-5.7,9.9L566.4,264l0,0l5.7-9.9l-13.8-8c-2.7,2.6-4.8,6.3-5.7,9.9c-0.3,1.3-0.5,2.6-0.5,3.8v34
		v57.5c0,5.9,4.2,13.1,9.3,16l79.3,45.8c5.1,2.9,13.4,2.9,18.5,0l79.3-45.8c5.1-2.9,9.3-10.2,9.3-16V294L718,276.9z"/>
	<defs>
		<filter id="Adobe_OpacityMaskFilter_2_" filterUnits="userSpaceOnUse" x="727.6" y="246.1" width="19.5" height="17.9">
			<feFlood  style="flood-color:white;flood-opacity:1" result="back"/>
			<feBlend  in="SourceGraphic" in2="back" mode="normal"/>
		</filter>
	</defs>
	<mask maskUnits="userSpaceOnUse" x="727.6" y="246.1" width="19.5" height="17.9" id="SVGID_7_">
		<g filter="url(#Adobe_OpacityMaskFilter_2_)">
			<defs>
				<filter id="Adobe_OpacityMaskFilter_3_" filterUnits="userSpaceOnUse" x="727.6" y="246.1" width="19.5" height="17.9">
					<feFlood  style="flood-color:white;flood-opacity:1" result="back"/>
					<feBlend  in="SourceGraphic" in2="back" mode="normal"/>
				</filter>
			</defs>
			<mask maskUnits="userSpaceOnUse" x="727.6" y="246.1" width="19.5" height="17.9" id="SVGID_7_">
			</mask>
			<linearGradient id="SVGID_8_" gradientUnits="userSpaceOnUse" x1="740.7671" y1="260.226" x2="734.974" y2="250.0869">
				<stop  offset="0" style="stop-color:#FFFFFF"/>
				<stop  offset="1" style="stop-color:#000000"/>
			</linearGradient>
			<path mask="url(#SVGID_7_)" fill="url(#SVGID_8_)" d="M727.6,254l5.7,9.9l13.8-8c-0.9-3.6-3.1-7.3-5.8-9.9L727.6,254z"/>
		</g>
	</mask>
	<linearGradient id="SVGID_9_" gradientUnits="userSpaceOnUse" x1="740.7671" y1="260.226" x2="734.974" y2="250.0869">
		<stop  offset="0" style="stop-color:#B4B4B4"/>
		<stop  offset="1" style="stop-color:#B4B4B4"/>
	</linearGradient>
	<path fill="url(#SVGID_9_)" d="M727.6,254l5.7,9.9l13.8-8c-0.9-3.6-3.1-7.3-5.8-9.9L727.6,254z"/>
	<defs>
		<filter id="Adobe_OpacityMaskFilter_4_" filterUnits="userSpaceOnUse" x="552.6" y="246.1" width="19.5" height="17.9">
			<feFlood  style="flood-color:white;flood-opacity:1" result="back"/>
			<feBlend  in="SourceGraphic" in2="back" mode="normal"/>
		</filter>
	</defs>
	<mask maskUnits="userSpaceOnUse" x="552.6" y="246.1" width="19.5" height="17.9" id="SVGID_10_">
		<g filter="url(#Adobe_OpacityMaskFilter_4_)">
			<defs>
				<filter id="Adobe_OpacityMaskFilter_5_" filterUnits="userSpaceOnUse" x="552.6" y="246.1" width="19.5" height="17.9">
					<feFlood  style="flood-color:white;flood-opacity:1" result="back"/>
					<feBlend  in="SourceGraphic" in2="back" mode="normal"/>
				</filter>
			</defs>
			<mask maskUnits="userSpaceOnUse" x="552.6" y="246.1" width="19.5" height="17.9" id="SVGID_10_">
			</mask>
			<linearGradient id="SVGID_11_" gradientUnits="userSpaceOnUse" x1="565.2576" y1="249.7949" x2="559.2556" y2="259.5212">
				<stop  offset="0" style="stop-color:#FFFFFF"/>
				<stop  offset="1" style="stop-color:#000000"/>
			</linearGradient>
			<path mask="url(#SVGID_10_)" fill="url(#SVGID_11_)" d="M566.4,264L566.4,264l5.7-9.9l-13.8-8c-2.7,2.6-4.8,6.3-5.7,9.9
				L566.4,264z"/>
		</g>
	</mask>
	<linearGradient id="SVGID_12_" gradientUnits="userSpaceOnUse" x1="565.2576" y1="249.7949" x2="559.2556" y2="259.5212">
		<stop  offset="0" style="stop-color:#B4B4B4"/>
		<stop  offset="1" style="stop-color:#B4B4B4"/>
	</linearGradient>
	<path fill="url(#SVGID_12_)" d="M566.4,264L566.4,264l5.7-9.9l-13.8-8c-2.7,2.6-4.8,6.3-5.7,9.9L566.4,264z"/>
	<linearGradient id="SVGID_13_" gradientUnits="userSpaceOnUse" x1="395.2822" y1="215.002" x2="590.8441" y2="215.002">
		<stop  offset="0" style="stop-color:#A4D9F5"/>
		<stop  offset="1" style="stop-color:#004D77"/>
	</linearGradient>
	<path fill="url(#SVGID_13_)" d="M581.6,153.2l-79.3-45.8c-5.1-2.9-13.4-2.9-18.5,0l-79.3,45.8c-5.1,2.9-9.3,10.2-9.3,16v57
		l29.9,17.2c1.1,0.6,2.1,1.4,3,2.3l4.2-2.4l5.7,9.9l-22.8,13.2l-5.7-9.9l-13.8,8c0.9,3.6,3.1,7.3,5.7,9.9c0.9,0.9,1.9,1.7,3,2.3
		l29.9,17.2l49.4,28.5c5.1,2.9,13.4,2.9,18.5,0l49.8-28.7v-34c0-1.2,0.2-2.5,0.5-3.8l-4.6-2.7l5.7-9.9l4.6,2.7l18.2,10.5l0,0
		l-5.7,9.9l13.8,8c2.7-2.6,4.8-6.3,5.7-9.9c0.3-1.3,0.5-2.6,0.5-3.8v-34v-57.5C590.8,163.4,586.7,156.1,581.6,153.2z"/>
	<defs>
		<filter id="Adobe_OpacityMaskFilter_6_" filterUnits="userSpaceOnUse" x="570.8" y="256.6" width="19.5" height="17.9">
			<feFlood  style="flood-color:white;flood-opacity:1" result="back"/>
			<feBlend  in="SourceGraphic" in2="back" mode="normal"/>
		</filter>
	</defs>
	<mask maskUnits="userSpaceOnUse" x="570.8" y="256.6" width="19.5" height="17.9" id="SVGID_14_">
		<g filter="url(#Adobe_OpacityMaskFilter_6_)">
			<defs>
				<filter id="Adobe_OpacityMaskFilter_7_" filterUnits="userSpaceOnUse" x="570.8" y="256.6" width="19.5" height="17.9">
					<feFlood  style="flood-color:white;flood-opacity:1" result="back"/>
					<feBlend  in="SourceGraphic" in2="back" mode="normal"/>
				</filter>
			</defs>
			<mask maskUnits="userSpaceOnUse" x="570.8" y="256.6" width="19.5" height="17.9" id="SVGID_14_">
			</mask>
			<linearGradient id="SVGID_15_" gradientUnits="userSpaceOnUse" x1="577.832" y1="270.4579" x2="583.6255" y2="261.1455">
				<stop  offset="0" style="stop-color:#FFFFFF"/>
				<stop  offset="1" style="stop-color:#000000"/>
			</linearGradient>
			<path mask="url(#SVGID_14_)" fill="url(#SVGID_15_)" d="M576.5,256.6L576.5,256.6l-5.7,9.9l13.8,8c2.7-2.6,4.8-6.3,5.7-9.9
				L576.5,256.6z"/>
		</g>
	</mask>
	<linearGradient id="SVGID_16_" gradientUnits="userSpaceOnUse" x1="577.832" y1="270.4579" x2="583.6255" y2="261.1455">
		<stop  offset="0" style="stop-color:#B4B4B4"/>
		<stop  offset="1" style="stop-color:#B4B4B4"/>
	</linearGradient>
	<path fill="url(#SVGID_16_)" d="M576.5,256.6L576.5,256.6l-5.7,9.9l13.8,8c2.7-2.6,4.8-6.3,5.7-9.9L576.5,256.6z"/>
	<defs>
		<filter id="Adobe_OpacityMaskFilter_8_" filterUnits="userSpaceOnUse" x="395.8" y="256.6" width="19.5" height="17.9">
			<feFlood  style="flood-color:white;flood-opacity:1" result="back"/>
			<feBlend  in="SourceGraphic" in2="back" mode="normal"/>
		</filter>
	</defs>
	<mask maskUnits="userSpaceOnUse" x="395.8" y="256.6" width="19.5" height="17.9" id="SVGID_17_">
		<g filter="url(#Adobe_OpacityMaskFilter_8_)">
			<defs>
				<filter id="Adobe_OpacityMaskFilter_9_" filterUnits="userSpaceOnUse" x="395.8" y="256.6" width="19.5" height="17.9">
					<feFlood  style="flood-color:white;flood-opacity:1" result="back"/>
					<feBlend  in="SourceGraphic" in2="back" mode="normal"/>
				</filter>
			</defs>
			<mask maskUnits="userSpaceOnUse" x="395.8" y="256.6" width="19.5" height="17.9" id="SVGID_17_">
			</mask>
			<linearGradient id="SVGID_18_" gradientUnits="userSpaceOnUse" x1="402.1516" y1="260.4994" x2="408.1534" y2="270.4331">
				<stop  offset="0" style="stop-color:#FFFFFF"/>
				<stop  offset="1" style="stop-color:#000000"/>
			</linearGradient>
			<path mask="url(#SVGID_17_)" fill="url(#SVGID_18_)" d="M415.3,266.5l-5.7-9.9l-13.8,8c0.9,3.6,3.1,7.3,5.7,9.9L415.3,266.5z"/>
		</g>
	</mask>
	<linearGradient id="SVGID_19_" gradientUnits="userSpaceOnUse" x1="402.1516" y1="260.4994" x2="408.1534" y2="270.4331">
		<stop  offset="0" style="stop-color:#B4B4B4"/>
		<stop  offset="1" style="stop-color:#B4B4B4"/>
	</linearGradient>
	<path fill="url(#SVGID_19_)" d="M415.3,266.5l-5.7-9.9l-13.8,8c0.9,3.6,3.1,7.3,5.7,9.9L415.3,266.5z"/>
	<linearGradient id="SVGID_20_" gradientUnits="userSpaceOnUse" x1="261.1349" y1="229.829" x2="412.1407" y2="380.8348">
		<stop  offset="0" style="stop-color:#6A604B"/>
		<stop  offset="1.966804e-002" style="stop-color:#6D624D"/>
		<stop  offset="0.2181" style="stop-color:#807358"/>
		<stop  offset="0.4332" style="stop-color:#8F8060"/>
		<stop  offset="0.6751" style="stop-color:#998865"/>
		<stop  offset="1" style="stop-color:#9B8B66"/>
	</linearGradient>
	<path fill="url(#SVGID_20_)" d="M404.5,276.8c-1.1-0.6-2.1-1.4-3-2.3l-4.2,2.4l-5.7-9.9l4.2-2.4l18.6-10.7l5.7,9.9l13.8-8
		c-0.9-3.6-3.1-7.3-5.7-9.9c-0.9-0.9-1.9-1.7-3-2.3l-29.9-17.2l-49.4-28.5c-5.1-2.9-13.4-2.9-18.5,0l-49.7,28.7v34.1
		c0,1.2-0.2,2.5-0.5,3.8l4.6,2.6l-5.7,9.9l-22.8-13.2l0,0l5.7-9.9l-13.8-8c-2.7,2.6-4.8,6.3-5.8,9.9c-0.3,1.3-0.5,2.6-0.5,3.8v34.1
		v57.5c0,5.9,4.2,13.1,9.3,16l79.3,45.8c5.1,2.9,13.4,2.9,18.5,0l79.3-45.8c5.1-2.9,9.3-10.2,9.3-16v-57L404.5,276.8z"/>
	<defs>
		<filter id="Adobe_OpacityMaskFilter_10_" filterUnits="userSpaceOnUse" x="414.4" y="245.8" width="19.5" height="17.9">
			<feFlood  style="flood-color:white;flood-opacity:1" result="back"/>
			<feBlend  in="SourceGraphic" in2="back" mode="normal"/>
		</filter>
	</defs>
	<mask maskUnits="userSpaceOnUse" x="414.4" y="245.8" width="19.5" height="17.9" id="SVGID_21_">
		<g filter="url(#Adobe_OpacityMaskFilter_10_)">
			<defs>
				<filter id="Adobe_OpacityMaskFilter_11_" filterUnits="userSpaceOnUse" x="414.4" y="245.8" width="19.5" height="17.9">
					<feFlood  style="flood-color:white;flood-opacity:1" result="back"/>
					<feBlend  in="SourceGraphic" in2="back" mode="normal"/>
				</filter>
			</defs>
			<mask maskUnits="userSpaceOnUse" x="414.4" y="245.8" width="19.5" height="17.9" id="SVGID_21_">
			</mask>
			<linearGradient id="SVGID_22_" gradientUnits="userSpaceOnUse" x1="427.2435" y1="259.4173" x2="421.6562" y2="249.7948">
				<stop  offset="0" style="stop-color:#FFFFFF"/>
				<stop  offset="1" style="stop-color:#000000"/>
			</linearGradient>
			<path mask="url(#SVGID_21_)" fill="url(#SVGID_22_)" d="M414.4,253.8l5.7,9.9l13.8-8c-0.9-3.6-3.1-7.3-5.7-9.9L414.4,253.8z"/>
		</g>
	</mask>
	<linearGradient id="SVGID_23_" gradientUnits="userSpaceOnUse" x1="427.2435" y1="259.4173" x2="421.6562" y2="249.7948">
		<stop  offset="0" style="stop-color:#B4B4B4"/>
		<stop  offset="1" style="stop-color:#B4B4B4"/>
	</linearGradient>
	<path fill="url(#SVGID_23_)" d="M414.4,253.8l5.7,9.9l13.8-8c-0.9-3.6-3.1-7.3-5.7-9.9L414.4,253.8z"/>
	<defs>
		<filter id="Adobe_OpacityMaskFilter_12_" filterUnits="userSpaceOnUse" x="239.4" y="245.8" width="19.5" height="17.9">
			<feFlood  style="flood-color:white;flood-opacity:1" result="back"/>
			<feBlend  in="SourceGraphic" in2="back" mode="normal"/>
		</filter>
	</defs>
	<mask maskUnits="userSpaceOnUse" x="239.4" y="245.8" width="19.5" height="17.9" id="SVGID_24_">
		<g filter="url(#Adobe_OpacityMaskFilter_12_)">
			<defs>
				<filter id="Adobe_OpacityMaskFilter_13_" filterUnits="userSpaceOnUse" x="239.4" y="245.8" width="19.5" height="17.9">
					<feFlood  style="flood-color:white;flood-opacity:1" result="back"/>
					<feBlend  in="SourceGraphic" in2="back" mode="normal"/>
				</filter>
			</defs>
			<mask maskUnits="userSpaceOnUse" x="239.4" y="245.8" width="19.5" height="17.9" id="SVGID_24_">
			</mask>
			<linearGradient id="SVGID_25_" gradientUnits="userSpaceOnUse" x1="251.8683" y1="249.4539" x2="246.1258" y2="259.2317">
				<stop  offset="0" style="stop-color:#FFFFFF"/>
				<stop  offset="1" style="stop-color:#000000"/>
			</linearGradient>
			<path mask="url(#SVGID_24_)" fill="url(#SVGID_25_)" d="M253.2,263.8L253.2,263.8l5.7-9.9l-13.8-8c-2.7,2.6-4.8,6.3-5.8,9.9
				L253.2,263.8z"/>
		</g>
	</mask>
	<linearGradient id="SVGID_26_" gradientUnits="userSpaceOnUse" x1="251.8683" y1="249.4539" x2="246.1258" y2="259.2317">
		<stop  offset="0" style="stop-color:#B4B4B4"/>
		<stop  offset="1" style="stop-color:#B4B4B4"/>
	</linearGradient>
	<path fill="url(#SVGID_26_)" d="M253.2,263.8L253.2,263.8l5.7-9.9l-13.8-8c-2.7,2.6-4.8,6.3-5.8,9.9L253.2,263.8z"/>
	<linearGradient id="SVGID_27_" gradientUnits="userSpaceOnUse" x1="104.3649" y1="139.2686" x2="255.371" y2="290.2747">
		<stop  offset="0" style="stop-color:#FFFFFF"/>
		<stop  offset="1" style="stop-color:#7F7F7F"/>
	</linearGradient>
	<path fill="url(#SVGID_27_)" d="M268.4,153l-79.3-45.8c-5.1-2.9-13.4-2.9-18.5,0L91.3,153c-5.1,2.9-9.3,10.2-9.3,16v91.5
		c0,5.9,4.2,13.1,9.3,16l79.3,45.8c5.1,2.9,13.4,2.9,18.5,0l49.7-28.7v-34.1c0-1.2,0.2-2.5,0.5-3.8l-4.6-2.6l5.7-9.9l22.8,13.2l0,0
		l-5.7,9.9l13.8,8c2.7-2.6,4.8-6.3,5.8-9.9c0.3-1.3,0.5-2.6,0.5-3.8v-34.1V169C277.7,163.1,273.5,155.9,268.4,153z"/>
	<defs>
		<filter id="Adobe_OpacityMaskFilter_14_" filterUnits="userSpaceOnUse" x="257.6" y="256.3" width="19.5" height="17.9">
			<feFlood  style="flood-color:white;flood-opacity:1" result="back"/>
			<feBlend  in="SourceGraphic" in2="back" mode="normal"/>
		</filter>
	</defs>
	<mask maskUnits="userSpaceOnUse" x="257.6" y="256.3" width="19.5" height="17.9" id="SVGID_28_">
		<g filter="url(#Adobe_OpacityMaskFilter_14_)">
			<defs>
				<filter id="Adobe_OpacityMaskFilter_15_" filterUnits="userSpaceOnUse" x="257.6" y="256.3" width="19.5" height="17.9">
					<feFlood  style="flood-color:white;flood-opacity:1" result="back"/>
					<feBlend  in="SourceGraphic" in2="back" mode="normal"/>
				</filter>
			</defs>
			<mask maskUnits="userSpaceOnUse" x="257.6" y="256.3" width="19.5" height="17.9" id="SVGID_28_">
			</mask>
			<linearGradient id="SVGID_29_" gradientUnits="userSpaceOnUse" x1="264.4746" y1="270.6612" x2="270.579" y2="260.6251">
				<stop  offset="0" style="stop-color:#FFFFFF"/>
				<stop  offset="1" style="stop-color:#000000"/>
			</linearGradient>
			<path mask="url(#SVGID_28_)" fill="url(#SVGID_29_)" d="M263.3,256.3L263.3,256.3l-5.7,9.9l13.8,8c2.7-2.6,4.8-6.3,5.8-9.9
				L263.3,256.3z"/>
		</g>
	</mask>
	<linearGradient id="SVGID_30_" gradientUnits="userSpaceOnUse" x1="264.4746" y1="270.6612" x2="270.579" y2="260.6251">
		<stop  offset="0" style="stop-color:#B4B4B4"/>
		<stop  offset="1" style="stop-color:#B4B4B4"/>
	</linearGradient>
	<path fill="url(#SVGID_30_)" d="M263.3,256.3L263.3,256.3l-5.7,9.9l13.8,8c2.7-2.6,4.8-6.3,5.8-9.9L263.3,256.3z"/>
</g>
<text transform="matrix(1 0 0 1 289.1197 52.0425)" fill="#A4D9F5" font-family="'BookmanOldStyle-Bold'" font-size="31.2092">International FX Trading</text>
<g>
	<rect x="134.9" y="183.7" fill="none" width="89.7" height="49.8"/>
	<text transform="matrix(1 0 0 1 159.5945 198.7309)"><tspan x="0" y="0" fill="#004D77" font-family="'BookmanOldStyle-Bold'" font-size="21">Our </tspan><tspan x="-21.8" y="25.2" fill="#004D77" font-family="'BookmanOldStyle-Bold'" font-size="21">Mission</tspan></text>
	<rect x="291.7" y="274.1" fill="none" width="89.7" height="49.8"/>
	<text transform="matrix(1 0 0 1 316.3614 289.1917)"><tspan x="0" y="0" fill="#FFFFFF" font-family="'BookmanOldStyle-Bold'" font-size="21">Our</tspan><tspan x="-18.5" y="25.2" fill="#FFFFFF" font-family="'BookmanOldStyle-Bold'" font-size="21">Clients</tspan></text>
	<rect x="395.7" y="183.7" fill="none" width="195" height="75.5"/>
	<text transform="matrix(1 0 0 1 473.045 198.7309)"><tspan x="0" y="0" fill="#004D77" font-family="'BookmanOldStyle-Bold'" font-size="21">Our </tspan><tspan x="-52.3" y="25.2" fill="#004D77" font-family="'BookmanOldStyle-Bold'" font-size="21">Commitment</tspan><tspan x="-14.7" y="50.4" fill="#004D77" font-family="'BookmanOldStyle-Bold'" font-size="21">to you</tspan></text>
	<rect x="552.2" y="276.8" fill="none" width="195" height="44.1"/>
	<text transform="matrix(1 0 0 1 583.1876 291.8111)"><tspan x="0" y="0" fill="#FFFFFF" font-family="'BookmanOldStyle-Bold'" font-size="21">What makes</tspan><tspan x="-3.8" y="25.2" fill="#FFFFFF" font-family="'BookmanOldStyle-Bold'" font-size="21">us different?</tspan></text>
	<rect x="708.8" y="183.7" fill="none" width="195" height="75.5"/>
	<text transform="matrix(1 0 0 1 782.8448 198.7309)"><tspan x="0" y="0" fill="#004D77" font-family="'BookmanOldStyle-Bold'" font-size="21">Why</tspan><tspan x="-17" y="25.2" fill="#004D77" font-family="'BookmanOldStyle-Bold'" font-size="21">partner</tspan><tspan x="-23.5" y="50.4" fill="#004D77" font-family="'BookmanOldStyle-Bold'" font-size="21">with us?</tspan></text>
</g>
</svg>
